<svg width="167" height="135" viewBox="0 0 167 135" fill="none" xmlns="http://www.w3.org/2000/svg">
<path d="M61.8631 102.411C47.4726 102.377 34.2822 92.4486 30.4418 77.2326C24.4547 53.7088 40.5828 32.0212 61.1756 32.0212C83.2857 32.0212 98.1326 64.7418 98.1326 64.7418C98.1326 64.7418 86.5426 102.48 61.8631 102.411ZM131.907 66.8562L134.225 62.321L134.61 61.5949V61.5605L166.017 0H133.352L114.154 34.447C101.454 13.6208 78.994 -1.77247 56.2226 0.164619C26.2185 2.75888 2.02923 29.7734 0.125646 62.8085C-2.12073 101.961 26.0468 134.51 61.1756 134.51C69.3746 134.51 77.2289 132.713 84.3951 129.461C89.8971 127.005 95.0168 123.613 99.62 119.566C99.8306 119.357 100.003 119.221 100.207 119.016C101.25 118.046 102.492 116.733 103.845 115.172C105.259 113.513 106.752 111.612 108.271 109.676C108.549 109.365 108.793 109.018 109.07 108.673C109.521 108.085 109.936 107.527 110.351 106.944C111.632 105.249 112.84 103.519 113.91 101.961C115.054 100.303 116.058 98.7792 116.783 97.6026L136.027 134.366H166.997L131.907 66.8562Z" fill="#F4F4F4"/>
<path d="M134.607 61.5611V61.5956L134.227 62.3223L131.909 66.8543L114.156 34.4432L134.607 61.5611Z" fill="#E7E7E7"/>
<path d="M116.783 97.6026C116.058 98.7791 115.053 100.303 113.912 101.961C112.84 103.519 111.632 105.249 110.351 106.944L98.1325 64.7443L116.783 97.6026Z" fill="#E7E7E7"/>
</svg>
