<svg width="185" height="36" viewBox="0 0 185 36" fill="none" xmlns="http://www.w3.org/2000/svg">
<path d="M15.3034 25.8978C11.8253 25.8894 8.63729 23.4165 7.70911 19.6265C6.26206 13.7673 10.1601 8.3654 15.1372 8.3654C20.481 8.3654 24.0694 16.5153 24.0694 16.5153C24.0694 16.5153 21.2682 25.9152 15.3034 25.8978ZM32.2325 17.042L32.7927 15.9124L32.8858 15.7315V15.7229L40.4766 0.389648H32.5817L27.9417 8.96961C24.8722 3.78228 19.4438 -0.0518319 13.9401 0.430651C6.68836 1.07682 0.84201 7.80551 0.38193 16.0338C-0.161001 25.7858 6.64685 33.893 15.1372 33.893C17.1188 33.893 19.0172 33.4453 20.7492 32.6353C22.079 32.0236 23.3163 31.1788 24.4289 30.1707C24.4798 30.1186 24.5215 30.0849 24.5708 30.0339C24.8229 29.7922 25.123 29.4651 25.45 29.0764C25.7919 28.6632 26.1526 28.1896 26.5198 27.7073C26.5869 27.6299 26.6458 27.5435 26.7129 27.4577C26.8219 27.3111 26.9221 27.1722 27.0224 27.027C27.3321 26.6047 27.6242 26.1739 27.8827 25.7858C28.1591 25.3728 28.4018 24.9933 28.5772 24.7002L33.2283 33.8571H40.7133L32.2325 17.042Z" fill="#13D6D1"/>
<path d="M32.8843 15.7232V15.7318L32.7925 15.9128L32.2323 17.0416L27.9414 8.96875L32.8843 15.7232Z" fill="#06B2A5"/>
<path d="M28.5781 24.7001C28.4027 24.9932 28.16 25.3727 27.8841 25.7857C27.6251 26.1738 27.333 26.6046 27.0233 27.0269L24.0703 16.5159L28.5781 24.7001Z" fill="#06B2A5"/>
<path d="M45.7332 33.9995C45.0401 33.9995 44.4621 33.7596 43.9991 33.2795C43.5361 32.7994 43.3047 32.2088 43.3047 31.5077C43.3047 30.8002 43.5361 30.208 43.9991 29.7311C44.4621 29.2542 45.0401 29.0156 45.7332 29.0156C46.1807 29.0156 46.5885 29.1262 46.9565 29.3473C47.3245 29.5684 47.6005 29.8652 47.7844 30.238L46.9289 30.7496C46.8247 30.5222 46.6667 30.3437 46.4552 30.2142C46.2437 30.0848 45.9999 30.02 45.7239 30.02C45.3192 30.02 44.9804 30.1622 44.7075 30.4464C44.4345 30.7307 44.2981 31.0845 44.2981 31.5077C44.2981 31.9309 44.4345 32.2846 44.7075 32.5688C44.9804 32.8531 45.3192 32.9952 45.7239 32.9952C45.9937 32.9952 46.2375 32.9289 46.4552 32.7962C46.6729 32.6637 46.8369 32.4868 46.9474 32.2656L47.8027 32.7678C47.6065 33.1468 47.3245 33.4468 46.9565 33.6679C46.5885 33.8889 46.1807 33.9995 45.7332 33.9995ZM52.2463 29.139V30.1243H50.747V33.8764H49.7535V30.1243H48.2449V29.139H52.2463ZM55.7793 29.0156C56.411 29.0156 56.9507 29.2573 57.3982 29.7405C57.846 30.2237 58.0697 30.8129 58.0697 31.5077C58.0697 32.2088 57.846 32.7994 57.3982 33.2795C56.9507 33.7596 56.411 33.9995 55.7793 33.9995C55.0802 33.9995 54.5436 33.7343 54.1695 33.2037V35.7714H53.176V29.139H54.1695V29.821C54.5436 29.2842 55.0802 29.0156 55.7793 29.0156ZM54.5834 32.5925C54.8595 32.8799 55.2058 33.0236 55.6229 33.0236C56.0399 33.0236 56.3864 32.8799 56.6623 32.5925C56.9383 32.3051 57.0762 31.9434 57.0762 31.5077C57.0762 31.0717 56.9383 30.7102 56.6623 30.4227C56.3864 30.1354 56.0399 29.9916 55.6229 29.9916C55.2058 29.9916 54.8595 30.1354 54.5834 30.4227C54.3076 30.7102 54.1695 31.0717 54.1695 31.5077C54.1695 31.9434 54.3076 32.3051 54.5834 32.5925ZM62.872 29.139H63.8654V33.8764H62.872V33.1941C62.4978 33.7311 61.9614 33.9995 61.2622 33.9995C60.6305 33.9995 60.091 33.758 59.6432 33.2747C59.1957 32.7914 58.9718 32.2025 58.9718 31.5077C58.9718 30.8065 59.1957 30.2158 59.6432 29.7359C60.091 29.2558 60.6305 29.0156 61.2622 29.0156C61.9614 29.0156 62.4978 29.281 62.872 29.8117V29.139ZM60.3792 32.5925C60.6551 32.8799 61.0016 33.0236 61.4186 33.0236C61.8356 33.0236 62.182 32.8799 62.458 32.5925C62.734 32.3051 62.872 31.9434 62.872 31.5077C62.872 31.0717 62.734 30.7102 62.458 30.4227C62.182 30.1354 61.8356 29.9916 61.4186 29.9916C61.0016 29.9916 60.6551 30.1354 60.3792 30.4227C60.1032 30.7102 59.9652 31.0717 59.9652 31.5077C59.9652 31.9434 60.1032 32.3051 60.3792 32.5925ZM69.3944 33.8764H68.2445L67.1039 32.2562L65.954 33.8764H64.795L66.5244 31.4412L64.887 29.139H66.0368L67.0946 30.636L68.1526 29.139H69.3115L67.6743 31.4508L69.3944 33.8764ZM72.1638 33.9995C71.4891 33.9995 70.9158 33.7596 70.4437 33.2795C69.9714 32.7994 69.7354 32.2088 69.7354 31.5077C69.7354 30.8065 69.9714 30.2158 70.4437 29.7359C70.9158 29.2558 71.4891 29.0156 72.1638 29.0156C72.8445 29.0156 73.4194 29.2558 73.8886 29.7359C74.3576 30.2158 74.5923 30.8065 74.5923 31.5077C74.5923 32.2088 74.3576 32.7994 73.8886 33.2795C73.4194 33.7596 72.8445 33.9995 72.1638 33.9995ZM71.1428 32.5783C71.4186 32.8626 71.759 33.0047 72.1638 33.0047C72.5685 33.0047 72.9089 32.8626 73.1849 32.5783C73.4608 32.294 73.5988 31.9372 73.5988 31.5077C73.5988 31.0781 73.4608 30.7212 73.1849 30.437C72.9089 30.1527 72.5685 30.0106 72.1638 30.0106C71.759 30.0106 71.4186 30.1527 71.1428 30.437C70.8668 30.7212 70.7288 31.0781 70.7288 31.5077C70.7288 31.9372 70.8668 32.294 71.1428 32.5783ZM78.9345 31.4412C79.3883 31.6561 79.6152 32.0192 79.6152 32.531C79.6152 32.9289 79.4848 33.2526 79.2243 33.5021C78.9637 33.7516 78.5911 33.8764 78.1066 33.8764H75.7517V29.139H77.9227C78.3948 29.139 78.7612 29.2605 79.0218 29.5037C79.2826 29.7468 79.4128 30.0612 79.4128 30.4464C79.4128 30.8949 79.2534 31.2265 78.9345 31.4412ZM77.8491 30.0106H76.6992V31.0624H77.8491C78.2538 31.0624 78.4562 30.8855 78.4562 30.5317C78.4562 30.1843 78.2538 30.0106 77.8491 30.0106ZM78.0147 32.9858C78.4317 32.9858 78.6401 32.7994 78.6401 32.4267C78.6401 32.2625 78.5849 32.1346 78.4746 32.0429C78.3641 31.9514 78.2109 31.9056 78.0147 31.9056H76.6992V32.9858H78.0147ZM84.3254 29.139H85.3189V33.8764H84.3254V33.1941C83.9513 33.7311 83.4148 33.9995 82.7156 33.9995C82.0839 33.9995 81.5444 33.758 81.0967 33.2747C80.6491 32.7914 80.4252 32.2025 80.4252 31.5077C80.4252 30.8065 80.6491 30.2158 81.0967 29.7359C81.5444 29.2558 82.0839 29.0156 82.7156 29.0156C83.4148 29.0156 83.9513 29.281 84.3254 29.8117V29.139ZM81.8326 32.5925C82.1085 32.8799 82.455 33.0236 82.872 33.0236C83.2891 33.0236 83.6354 32.8799 83.9114 32.5925C84.1875 32.3051 84.3254 31.9434 84.3254 31.5077C84.3254 31.0717 84.1875 30.7102 83.9114 30.4227C83.6354 30.1354 83.2891 29.9916 82.872 29.9916C82.455 29.9916 82.1085 30.1354 81.8326 30.4227C81.5566 30.7102 81.4187 31.0717 81.4187 31.5077C81.4187 31.9434 81.5566 32.3051 81.8326 32.5925ZM90.2958 29.139V33.8764H89.3209V32.2846H88.7688L87.6006 33.8764H86.4325L87.6742 32.1898C87.3554 32.0825 87.0993 31.8929 86.9061 31.6213C86.713 31.3497 86.6164 31.0465 86.6164 30.7118C86.6164 30.2759 86.7682 29.9048 87.0717 29.5984C87.3753 29.292 87.7663 29.139 88.2446 29.139H90.2958ZM88.2998 31.4034H89.3209V30.0674H88.2998C88.0974 30.0674 87.9288 30.1274 87.7939 30.2474C87.6589 30.3674 87.5915 30.5317 87.5915 30.7401C87.5915 30.9422 87.6589 31.1034 87.7939 31.2233C87.9288 31.3433 88.0974 31.4034 88.2998 31.4034ZM98.0786 33.8764H96.8918L95.0061 31.6877V33.8764H94.0127V29.139H95.0061V31.2329L96.7908 29.139H98.005L95.9812 31.4603L98.0786 33.8764ZM100.811 33.9995C100.136 33.9995 99.5631 33.7596 99.091 33.2795C98.6187 32.7994 98.3827 32.2088 98.3827 31.5077C98.3827 30.8065 98.6187 30.2158 99.091 29.7359C99.5631 29.2558 100.136 29.0156 100.811 29.0156C101.492 29.0156 102.067 29.2558 102.536 29.7359C103.005 30.2158 103.24 30.8065 103.24 31.5077C103.24 32.2088 103.005 32.7994 102.536 33.2795C102.067 33.7596 101.492 33.9995 100.811 33.9995ZM99.7901 32.5783C100.066 32.8626 100.406 33.0047 100.811 33.0047C101.216 33.0047 101.556 32.8626 101.832 32.5783C102.108 32.294 102.246 31.9372 102.246 31.5077C102.246 31.0781 102.108 30.7212 101.832 30.437C101.556 30.1527 101.216 30.0106 100.811 30.0106C100.406 30.0106 100.066 30.1527 99.7901 30.437C99.5141 30.7212 99.3761 31.0781 99.3761 31.5077C99.3761 31.9372 99.5141 32.294 99.7901 32.5783ZM109.09 29.139V33.8764H108.125V30.7591L106.8 32.9289H106.68L105.365 30.7685V33.8764H104.399V29.139H105.411L106.745 31.3276L108.079 29.139H109.09ZM114.592 29.139V33.8764H113.598V30.1053H111.492V33.8764H110.498V29.139H114.592ZM119.642 29.139H120.636V33.8764H119.642V33.1941C119.268 33.7311 118.732 33.9995 118.033 33.9995C117.401 33.9995 116.861 33.758 116.414 33.2747C115.966 32.7914 115.742 32.2025 115.742 31.5077C115.742 30.8065 115.966 30.2158 116.414 29.7359C116.861 29.2558 117.401 29.0156 118.033 29.0156C118.732 29.0156 119.268 29.281 119.642 29.8117V29.139ZM117.15 32.5925C117.425 32.8799 117.772 33.0236 118.189 33.0236C118.606 33.0236 118.952 32.8799 119.228 32.5925C119.504 32.3051 119.642 31.9434 119.642 31.5077C119.642 31.0717 119.504 30.7102 119.228 30.4227C118.952 30.1354 118.606 29.9916 118.189 29.9916C117.772 29.9916 117.425 30.1354 117.15 30.4227C116.874 30.7102 116.736 31.0717 116.736 31.5077C116.736 31.9434 116.874 32.3051 117.15 32.5925ZM125.153 29.139H126.146V33.8764H125.153V31.9908H123.046V33.8764H122.053V29.139H123.046V31.0244H125.153V29.139ZM130.884 29.139H131.648V33.8764H130.673V30.8634L128.318 33.8764H127.554V29.139H128.529V32.1424L130.884 29.139ZM136.615 29.139V33.8764H135.641V32.2846H135.088L133.92 33.8764H132.752L133.994 32.1898C133.675 32.0825 133.419 31.8929 133.226 31.6213C133.033 31.3497 132.936 31.0465 132.936 30.7118C132.936 30.2759 133.088 29.9048 133.391 29.5984C133.695 29.292 134.086 29.139 134.564 29.139H136.615ZM134.619 31.4034H135.641V30.0674H134.619C134.417 30.0674 134.248 30.1274 134.114 30.2474C133.979 30.3674 133.911 30.5317 133.911 30.7401C133.911 30.9422 133.979 31.1034 134.114 31.2233C134.248 31.3433 134.417 31.4034 134.619 31.4034Z" fill="#1D283A"/>
<path d="M121.316 6.6581C122.937 6.6581 124.275 7.23007 125.333 8.37525C126.389 9.51996 126.918 11.1025 126.918 13.1213V22.7048H123.095V13.6201C123.095 12.5798 122.828 11.7838 122.295 11.232C121.762 10.6805 121.051 10.4047 120.161 10.4047C119.173 10.4047 118.382 10.7271 117.79 11.3726C117.197 12.018 116.902 12.9859 116.902 14.2765V22.7048H113.078V7.09498H116.902V8.84326C117.829 7.38675 119.301 6.6581 121.316 6.6581ZM50.268 14.282H55.959L53.1127 5.35353L50.268 14.282ZM86.3323 17.8695C87.1026 18.6685 88.1637 19.0852 89.3498 19.0852C90.535 19.0852 91.5185 18.5816 92.2981 17.7825C93.0777 16.9824 93.541 15.9559 93.541 14.7012C93.541 13.4462 93.0777 12.4196 92.2981 11.6202C91.5185 10.8215 90.535 10.3041 89.3498 10.3041C88.1637 10.3041 87.0372 10.7802 86.2669 11.5789C85.4956 12.3783 85.0149 13.4462 85.0149 14.7012C85.0149 15.9559 85.5612 17.0693 86.3323 17.8695ZM93.47 7.11278H97.2924V22.7142H93.47V20.498C92.3232 21.9753 90.7125 22.7142 88.6389 22.7142C86.6625 22.7142 84.9686 21.9402 83.5556 20.3923C82.1441 18.8438 81.4376 16.9466 81.4376 14.7012C81.4376 12.4547 82.1441 10.5575 83.5556 9.00997C84.9686 7.46224 86.6625 6.68782 88.6389 6.68782C90.7125 6.68782 92.3232 7.42696 93.47 8.90286V7.11278ZM80.6109 4.28621C78.5168 4.12062 77.4703 5.00327 77.4703 6.93972V7.09498H80.6109V10.9666H77.4703V22.7048H73.6466V10.9666H71.5133V7.09498H73.6466V6.93972C73.6466 4.73343 74.2292 3.0576 75.3951 1.9129C76.5603 0.768509 78.2992 0.269021 80.6109 0.414433V4.28621ZM64.9085 22.7048H68.7311V0.389648H64.9085V22.7048ZM58.6289 22.7162L57.2326 18.3092H48.964L47.5678 22.71H43.1523L50.5639 0.389648H55.6327L63.0746 22.7162H58.6289ZM139.809 7.0953H144.017L138.386 22.7048H134.03L128.4 7.0953H132.608L136.195 18.022L139.809 7.0953ZM148.582 13.0232H156.138C155.921 11.9621 155.473 11.1711 154.791 10.6507C154.108 10.1308 153.335 9.87038 152.465 9.87038C151.436 9.87038 150.587 10.1461 149.916 10.6969C149.243 11.2493 148.8 12.0236 148.582 13.0232ZM165.711 11.1004C165.711 11.5182 165.973 11.855 166.496 12.1154C167.02 12.3753 167.657 12.6044 168.409 12.8033C169.159 13.0002 169.91 13.2497 170.659 13.5518C171.411 13.8532 172.049 14.3578 172.572 15.0653C173.095 15.7738 173.358 16.6582 173.358 17.7191C173.358 19.3223 172.788 20.5546 171.653 21.4191C170.517 22.2813 169.099 22.7142 167.401 22.7142C164.357 22.7142 162.283 21.4751 161.177 18.9994L164.495 17.0315C164.93 18.3855 165.899 19.0611 167.401 19.0611C168.763 19.0611 169.445 18.6136 169.445 17.7191C169.445 17.3025 169.183 16.9651 168.66 16.7043C168.136 16.4446 167.499 16.2099 166.748 16.0012C165.997 15.7941 165.247 15.5332 164.495 15.222C163.745 14.9096 163.107 14.416 162.584 13.7383C162.06 13.0631 161.799 12.2138 161.799 11.1948C161.799 9.65456 162.337 8.44215 163.414 7.55776C164.491 6.67321 165.83 6.23029 167.429 6.23029C168.635 6.23029 169.732 6.51699 170.719 7.08879C171.706 7.66217 172.488 8.47743 173.06 9.54014L169.8 11.4127C169.327 10.351 168.535 9.8211 167.429 9.8211C166.935 9.8211 166.526 9.93554 166.2 10.165C165.874 10.3929 165.711 10.7058 165.711 11.1004ZM184.523 10.9666H181.174V17.4593C181.174 18.0014 181.302 18.3977 181.56 18.6469C181.816 18.8964 182.191 19.0364 182.686 19.0684C183.18 19.0994 183.791 19.0948 184.523 19.0522V22.7048C181.894 23.0171 180.043 22.7566 178.966 21.9243C177.889 21.0922 177.352 19.6046 177.352 17.4593V10.9666H174.773V7.09498H177.352V3.86413L181.175 3.86476L181.174 7.09498H184.523V10.9666ZM105.166 22.7048H109.254V2.63631H105.166V22.7048ZM148.641 16.1454C149.154 18.1023 150.549 19.0797 152.819 19.0797C154.282 19.0797 155.388 18.5597 156.138 17.5195L159.221 19.3926C157.759 21.6189 155.605 22.7323 152.76 22.7323C150.31 22.7323 148.346 21.9518 146.862 20.3906C145.381 18.8302 144.64 16.8627 144.64 14.491C144.64 12.1385 145.371 10.178 146.833 8.60505C148.295 7.03412 150.171 6.24936 152.465 6.24936C154.637 6.24936 156.43 7.04015 157.842 8.62189C159.256 10.2033 159.962 12.1607 159.962 14.491C159.962 15.0115 159.912 15.5632 159.813 16.1454H148.641Z" fill="#1D283A"/>
</svg>
